<svg width="172" height="35" viewBox="0 0 172 35" fill="none" xmlns="http://www.w3.org/2000/svg">
<path fill-rule="evenodd" clip-rule="evenodd" d="M72.8503 20.7138C73.2146 19.7864 73.3975 18.7103 73.3975 17.487C73.3975 16.2632 73.2117 15.1873 72.8396 14.2595C72.4678 13.3313 71.9579 12.551 71.3107 11.9186C70.6633 11.2862 69.9057 10.8121 69.0382 10.4958C68.1701 10.1792 67.2473 10.0208 66.2697 10.0208C65.3191 10.0208 64.4132 10.1792 63.5528 10.4958C62.6915 10.8121 61.9337 11.2862 61.28 11.9186C60.6257 12.551 60.1054 13.3313 59.7199 14.2595C59.3343 15.1873 59.1413 16.2632 59.1413 17.487C59.1413 18.7103 59.3276 19.7864 59.6995 20.7138C60.0715 21.6421 60.5806 22.419 61.2283 23.0441C61.8754 23.6702 62.6333 24.1407 63.5011 24.4568C64.3689 24.7734 65.2915 24.9315 66.2697 24.9315C67.2747 24.9315 68.2152 24.7734 69.0896 24.4568C69.9641 24.1407 70.7185 23.6702 71.352 23.0441C71.9853 22.419 72.4849 21.6421 72.8503 20.7138ZM62.726 19.3839C62.5538 18.8202 62.4679 18.1877 62.4679 17.487C62.4679 16.7995 62.5538 16.1705 62.726 15.5996C62.8982 15.0292 63.1463 14.5413 63.4701 14.1359C63.7932 13.7301 64.1896 13.4138 64.6582 13.1868C65.1261 12.9602 65.6632 12.8468 66.2697 12.8468C66.8617 12.8468 67.3955 12.9567 67.8711 13.1768C68.3457 13.3962 68.7456 13.7093 69.0689 14.1148C69.3924 14.5209 69.6408 15.0084 69.813 15.5788C69.9852 16.1495 70.0713 16.7854 70.0713 17.487C70.0713 18.1877 69.9852 18.8202 69.813 19.3839C69.6408 19.9479 69.3924 20.4324 69.0689 20.8378C68.7456 21.2438 68.3457 21.5561 67.8711 21.7759C67.3955 21.9965 66.8617 22.1067 66.2697 22.1067C65.6632 22.1067 65.1261 21.9965 64.6582 21.7759C64.1896 21.5561 63.7932 21.2438 63.4701 20.8378C63.1463 20.4324 62.8982 19.9479 62.726 19.3839Z" fill="white"/>
<path d="M81.5022 22.1888C81.9567 22.1888 82.3319 22.1513 82.6281 22.0752C82.9242 21.9999 83.1619 21.897 83.3408 21.7655C83.5196 21.6354 83.6438 21.4809 83.7129 21.3021C83.7819 21.1236 83.8162 20.924 83.8162 20.704C83.8162 20.2368 83.5956 19.8479 83.155 19.5389C82.7141 19.2293 81.9567 18.8962 80.8824 18.5381C80.4139 18.3737 79.9455 18.1842 79.4772 17.9714C79.009 17.7586 78.5888 17.4904 78.217 17.1671C77.8455 16.8442 77.5422 16.4523 77.3081 15.9912C77.0738 15.531 76.9568 14.971 76.9568 14.3109C76.9568 13.6508 77.0808 13.0562 77.3286 12.527C77.5768 11.9976 77.9279 11.5477 78.3826 11.176C78.837 10.8046 79.3877 10.52 80.0351 10.3202C80.6826 10.1212 81.4124 10.0208 82.2253 10.0208C83.1893 10.0208 84.0229 10.1246 84.7255 10.3305C85.4275 10.5367 86.0062 10.7639 86.4607 11.0114L85.5312 13.5479C85.1314 13.3417 84.687 13.1594 84.1985 13.0011C83.7094 12.8433 83.1206 12.7638 82.4321 12.7638C81.6605 12.7638 81.106 12.8711 80.7686 13.0839C80.4312 13.2969 80.2622 13.6237 80.2622 14.0632C80.2622 14.3248 80.3246 14.545 80.4485 14.7233C80.5722 14.902 80.7481 15.0635 80.9752 15.208C81.2025 15.3521 81.4643 15.4831 81.7607 15.5996C82.0562 15.7167 82.3836 15.8366 82.7421 15.9603C83.4855 16.2358 84.1329 16.5071 84.6842 16.7752C85.2348 17.0434 85.693 17.3563 86.0582 17.7136C86.4228 18.0709 86.6949 18.4905 86.8743 18.9718C87.0529 19.4533 87.1427 20.0373 87.1427 20.7242C87.1427 22.0579 86.6742 23.0926 85.7375 23.8278C84.8008 24.5638 83.389 24.9317 81.5022 24.9317C80.8687 24.9317 80.2968 24.8937 79.7872 24.8181C79.2776 24.742 78.8267 24.6494 78.4341 24.5396C78.0417 24.4297 77.7039 24.3129 77.4214 24.1893C77.1392 24.0653 76.9017 23.9487 76.7086 23.8382L77.6181 21.2814C78.0445 21.5155 78.5715 21.7248 79.1988 21.91C79.8251 22.0959 80.5933 22.1888 81.5022 22.1888Z" fill="white"/>
<path d="M101.342 10.3515V13.0945H97.0241V24.6428H93.8012V13.0945H89.4826V10.3515H101.342Z" fill="white"/>
<path d="M104.922 24.6431H108.146V10.3515H104.922V24.6431Z" fill="white"/>
<path d="M122.573 24.6428C121.65 23.0069 120.652 21.3917 119.578 19.7964C118.502 18.2015 117.359 16.6962 116.148 15.28V24.6428H112.966V10.3515H115.59C116.044 10.8048 116.547 11.3617 117.098 12.0218C117.649 12.6819 118.209 13.3866 118.782 14.1358C119.353 14.885 119.921 15.6618 120.486 16.4658C121.051 17.27 121.581 18.0432 122.077 18.7857V10.3515H125.28V24.6428H122.573Z" fill="white"/>
<path d="M137.083 12.8263C135.582 12.8263 134.497 13.2421 133.829 14.0738C133.16 14.9058 132.827 16.043 132.827 17.4871C132.827 18.1876 132.909 18.824 133.074 19.3944C133.24 19.9645 133.488 20.4559 133.818 20.8686C134.149 21.2812 134.562 21.601 135.058 21.8279C135.554 22.0546 136.132 22.168 136.793 22.168C137.151 22.168 137.458 22.161 137.713 22.1475C137.968 22.134 138.191 22.1065 138.384 22.065V17.0952H141.608V24.1686C141.222 24.3201 140.603 24.4813 139.748 24.6528C138.894 24.8244 137.84 24.911 136.587 24.911C135.513 24.911 134.538 24.7457 133.664 24.4161C132.788 24.0857 132.041 23.6049 131.422 22.9722C130.803 22.3401 130.324 21.563 129.986 20.6419C129.648 19.7214 129.48 18.6695 129.48 17.4871C129.48 16.2907 129.666 15.2322 130.038 14.3108C130.41 13.39 130.918 12.6092 131.567 11.9701C132.214 11.3309 132.974 10.8463 133.85 10.5165C134.724 10.1863 135.657 10.0208 136.648 10.0208C137.324 10.0208 137.933 10.066 138.477 10.1551C139.021 10.2448 139.489 10.3478 139.882 10.4648C140.274 10.5813 140.599 10.7016 140.853 10.8256C141.109 10.9493 141.29 11.0459 141.401 11.1145L140.471 13.692C140.031 13.4584 139.523 13.256 138.953 13.0838C138.381 12.9119 137.758 12.8263 137.083 12.8263Z" fill="white"/>
<path d="M146.117 24.6428V10.3515H155.787V13.053H149.341V15.8573H155.064V18.4973H149.341V21.9413H156.262V24.6428H146.117Z" fill="white"/>
<path fill-rule="evenodd" clip-rule="evenodd" d="M169.284 11.3306C168.141 10.5674 166.495 10.1861 164.346 10.1861C163.754 10.1861 163.082 10.2135 162.332 10.2689C161.582 10.3234 160.854 10.4203 160.153 10.557V24.6426H163.375V19.4246H164.966C165.243 19.7551 165.519 20.1227 165.796 20.5287C166.072 20.9342 166.354 21.3633 166.636 21.8172C166.92 22.271 167.195 22.7388 167.466 23.2198C167.734 23.7011 168.001 24.1752 168.264 24.6426H171.866C171.619 24.1204 171.351 23.5877 171.061 23.0442C170.772 22.5015 170.473 21.9793 170.162 21.4775C169.853 20.9757 169.538 20.4944 169.222 20.0336C168.905 19.5731 168.603 19.1642 168.313 18.8064C169.182 18.4494 169.845 17.9574 170.307 17.3322C170.769 16.7067 170.999 15.8915 170.999 14.8883C170.999 13.2794 170.427 12.0937 169.284 11.3306ZM163.902 12.9496C164.088 12.9361 164.298 12.9291 164.532 12.9291C165.565 12.9291 166.347 13.077 166.877 13.3721C167.408 13.6685 167.673 14.1662 167.673 14.8675C167.673 15.5965 167.412 16.1124 166.888 16.4144C166.364 16.7171 165.497 16.8676 164.285 16.8676H163.375V12.9908C163.541 12.9776 163.716 12.9637 163.902 12.9496Z" fill="white"/>
<path d="M51.5929 10.4671H54.8354V24.7081H51.5929V18.6665H46.1474V24.7081H42.9048V10.4671H46.1474V15.9125H51.5929V10.4671Z" fill="white"/>
<path fill-rule="evenodd" clip-rule="evenodd" d="M20.7766 0.5V10.6843L29.0765 15.4963V4.69396L20.7766 0.5ZM-0.192034 0.500501V16.482H26.8016L18.5887 12.0071L7.88984 12.0019V4.80147L-0.192034 0.500501ZM20.7766 30.2177V23.0793L9.99528 23.0718C10.0053 23.1194 1.646 18.5255 1.646 18.5255L29.0763 18.6539V34.6351L20.7766 30.2177ZM-0.192034 19.7741L-0.192322 30.2177L7.88984 34.4114V24.4723L-0.192034 19.7741Z" fill="#6741C9"/>
</svg>
