<svg width="178" height="31" viewBox="0 0 178 31" fill="none" xmlns="http://www.w3.org/2000/svg">
<path fill-rule="evenodd" clip-rule="evenodd" d="M75.0592 25.9609L75.6187 25.217C75.9917 25.031 75.9917 24.659 75.9917 24.287C75.9917 23.915 75.9917 23.543 75.4322 23.171C75.2457 22.799 74.8728 22.613 74.3133 22.427C72.4853 22.0273 70.6801 21.5306 68.9052 20.939L66.8538 19.637C66.1079 19.2651 65.7349 18.7071 65.3619 18.1491L64.8025 15.9171C64.8025 14.9871 64.9889 14.2431 65.3619 13.6851C65.7349 12.9412 66.2944 12.1972 67.0403 11.8252C67.5998 11.2672 68.5322 10.7092 69.2781 10.5232C71.0315 9.92798 72.9329 9.92798 74.6863 10.5232C75.4322 10.5232 76.1782 10.8952 76.9241 11.4532L78.416 12.9412C78.9755 13.4992 79.1619 14.2431 79.3484 14.8011L75.4322 15.9171C75.4322 15.3591 74.8728 14.8011 74.3133 14.4291C73.6677 13.9462 72.8825 13.6851 72.0755 13.6851C71.3093 13.5969 70.5337 13.7258 69.8376 14.0571L69.0917 14.8011L68.7187 15.7311L69.0917 16.6611L70.0241 17.4051L71.143 17.7771L72.2619 18.1491L75.9917 19.2651L78.416 20.567C78.9755 21.125 79.3484 21.683 79.5349 22.427C79.9079 22.799 79.9079 23.543 79.9079 24.287C79.9079 25.217 79.9079 26.1469 79.3484 26.7049C78.9755 27.4489 78.416 28.1929 77.6701 28.7509C76.9241 29.3089 75.9917 29.8669 75.0592 30.0529C74.1268 30.4249 73.0079 30.6109 71.889 30.6109C70.0241 30.6109 68.5322 30.2389 67.0403 29.3089C65.7349 28.3789 64.8025 27.4489 64.243 25.9609L67.9727 24.473C68.3457 25.403 68.9052 25.9609 69.6511 26.3329C70.2106 26.7049 71.143 26.8909 72.0755 26.8909C73.1944 26.8909 73.9403 26.5189 74.8728 25.9609H75.0592ZM93.7079 30.0529L90.1647 30.7969C89.0458 30.7969 88.1133 30.7969 87.1809 30.2389C86.2485 29.8669 85.5025 29.1229 84.943 28.1929C84.3836 27.2629 84.1971 25.7749 84.1971 23.915V14.6151H80.6538V10.3372H81.5863C82.7052 10.3372 83.8241 10.1512 84.3836 9.03523C84.7566 8.66323 84.7566 8.10524 84.7566 6.80326V5.31529H88.4863V10.3372H92.589V14.8011H88.2998V26.1469L89.2322 27.0769L90.7241 27.2629H92.962L93.7079 30.0529ZM106.762 14.0571L106.203 13.6851H105.27L104.711 13.4992C103.148 13.4671 101.627 13.9951 100.421 14.9871L99.3025 16.4751C98.9296 17.0331 98.9296 17.7771 98.9296 18.3351V30.7969H94.6404V10.3372H97.9971L98.7431 12.7552C99.3025 11.8252 100.048 11.2672 100.981 10.8952C102.066 10.2962 103.284 9.97659 104.524 9.96521L107.694 10.3372L106.576 14.0571H106.762ZM117.392 30.6109C115.335 30.6053 113.325 30.0049 111.603 28.8825C109.882 27.76 108.524 26.1637 107.694 24.287C107.135 22.985 106.762 21.683 106.762 20.195C106.764 18.191 107.346 16.2301 108.437 14.5476C109.529 12.865 111.084 11.5323 112.916 10.7092C115.369 9.72633 118.109 9.72633 120.562 10.7092C121.681 11.0812 122.8 11.8252 123.546 12.7552C124.478 13.6851 125.224 14.9871 125.597 16.4751C126.157 18.1491 126.343 19.823 126.343 22.055H111.238C111.238 22.799 111.611 23.357 112.17 23.915C112.976 25.1661 114.148 26.1401 115.527 26.7049L117.951 27.0769C119.889 27.0794 121.755 26.3482 123.173 25.031L125.784 27.4489C124.699 28.4291 123.432 29.1874 122.054 29.6809C120.749 30.2389 119.07 30.6109 117.392 30.6109ZM116.646 13.4992C116.086 13.4992 115.34 13.4992 114.781 13.8711C113.587 14.4094 112.604 15.3244 111.984 16.4751C111.611 17.0331 111.238 17.7771 111.238 18.3351H121.867C121.867 17.7771 121.867 17.2191 121.494 16.4751C121.071 15.5176 120.358 14.7161 119.455 14.1825C118.552 13.649 117.505 13.41 116.459 13.4992H116.646ZM148.349 10.3372V30.6109H144.992L144.246 27.8209C143.686 28.7509 142.754 29.4949 141.635 29.8669C140.516 30.4249 139.397 30.6109 138.278 30.6109C136.926 30.6374 135.583 30.387 134.332 29.8751C133.081 29.3632 131.949 28.6008 131.005 27.6349C129.046 25.6515 127.948 22.9791 127.948 20.195C127.948 17.411 129.046 14.7386 131.005 12.7552C131.962 11.8065 133.097 11.0553 134.345 10.5446C135.593 10.034 136.929 9.77388 138.278 9.77921C139.397 9.77921 140.516 10.1512 141.449 10.5232C142.568 10.8952 143.5 11.6392 144.246 12.3832L144.992 10.3372H148.535H148.349ZM138.278 27.0769L140.516 26.5189C141.262 26.1469 142.008 25.5889 142.381 25.031C143.594 23.7125 144.26 21.9843 144.246 20.195C144.225 18.4123 143.564 16.6962 142.381 15.3591C142.008 14.8011 141.262 14.2431 140.516 13.8711C139.792 13.5109 138.994 13.3234 138.185 13.3234C137.376 13.3234 136.578 13.5109 135.854 13.8711L133.989 15.3591C132.776 16.6775 132.11 18.4057 132.124 20.195C132.145 21.9778 132.807 23.6939 133.989 25.031L135.854 26.5189C136.6 26.8909 137.346 27.0769 138.278 27.0769ZM155.622 30.6109H151.519V10.1512H154.689L155.622 12.0112C155.995 11.4532 156.741 10.8952 157.486 10.5232C158.046 10.1512 158.978 9.77921 159.911 9.77921C161.552 9.80338 163.134 10.3951 164.386 11.4532L165.692 12.9412C166.065 12.1972 166.811 11.4532 167.743 10.7092C168.682 10.0879 169.787 9.76376 170.914 9.77921L173.338 10.1512C174.248 10.4441 175.085 10.9275 175.792 11.569C176.5 12.2106 177.062 12.9954 177.441 13.8711C177.814 14.9871 178 16.4751 178 18.1491V30.6109H174.27V18.1491C174.27 16.2891 173.711 15.1731 172.965 14.4291C172.405 13.8711 171.286 13.4992 170.168 13.4992C169.235 13.4992 168.303 13.8711 167.743 14.6151C167.184 15.3591 166.811 16.4751 166.811 18.1491V30.6109H162.895V18.1491C162.895 16.2891 162.522 15.1731 161.776 14.4291C161.03 13.8711 160.097 13.4992 158.978 13.4992C158.046 13.4992 157.3 13.8711 156.74 14.4291C155.995 15.1731 155.622 16.1031 155.622 17.4051V30.4249V30.6109Z" fill="white"/>
<path fill-rule="evenodd" clip-rule="evenodd" d="M40.2995 10.3977L59.7506 9.07554C61.0598 9.07554 61.9949 10.3977 61.2468 11.3421L47.5937 30.2301C47.2196 30.4189 46.8455 30.7967 46.2845 30.7967H15.6116C15.379 30.7683 15.1563 30.6851 14.9614 30.5539C14.7665 30.4226 14.6048 30.247 14.4894 30.0412L0.83626 11.3421C0.0881414 10.3977 0.83626 8.88666 2.14547 9.07554L21.5965 10.3977L29.8258 1.33148C30.3869 0.575963 31.6961 0.575963 32.0702 1.33148L40.2995 10.2088V10.3977ZM44.4142 27.7746L31.6961 23.0526V27.7746H44.4142ZM30.1999 27.7746V23.0526L17.4819 27.7746H30.3869H30.1999ZM28.7037 22.1082L15.7986 26.8302L6.44715 13.6087L28.8907 21.9194L28.7037 22.1082ZM33.1924 22.1082L46.2845 26.8302L55.6359 13.6087L33.1924 21.9194V22.1082ZM30.1999 20.975V5.29795L19.7262 17.0085L30.1999 20.7861V20.975ZM31.6961 20.975V5.29795L42.3568 17.0085L31.6961 20.7861V20.975ZM16.5467 15.8752L18.9781 13.2309L7.00824 12.4754L16.5467 15.8752ZM45.3493 15.8752L42.9179 13.2309L54.7008 12.4754L45.3493 15.8752Z" fill="#006CFF"/>
</svg>
