<svg width="62" height="31" viewBox="0 0 62 31" fill="none" xmlns="http://www.w3.org/2000/svg">
<path fill-rule="evenodd" clip-rule="evenodd" d="M40.2995 10.3977L59.7506 9.07554C61.0598 9.07554 61.9949 10.3977 61.2468 11.3421L47.5937 30.2301C47.2196 30.4189 46.8455 30.7967 46.2845 30.7967H15.6116C15.379 30.7683 15.1563 30.6851 14.9614 30.5539C14.7665 30.4226 14.6048 30.247 14.4894 30.0412L0.83626 11.3421C0.0881414 10.3977 0.83626 8.88666 2.14547 9.07554L21.5965 10.3977L29.8258 1.33148C30.3869 0.575963 31.6961 0.575963 32.0702 1.33148L40.2995 10.2088V10.3977ZM44.4142 27.7746L31.6961 23.0526V27.7746H44.4142ZM30.1999 27.7746V23.0526L17.4819 27.7746H30.3869H30.1999ZM28.7037 22.1082L15.7986 26.8302L6.44715 13.6087L28.8907 21.9194L28.7037 22.1082ZM33.1924 22.1082L46.2845 26.8302L55.6359 13.6087L33.1924 21.9194V22.1082ZM30.1999 20.975V5.29795L19.7262 17.0085L30.1999 20.7861V20.975ZM31.6961 20.975V5.29795L42.3568 17.0085L31.6961 20.7861V20.975ZM16.5467 15.8752L18.9781 13.2309L7.00824 12.4754L16.5467 15.8752ZM45.3493 15.8752L42.9179 13.2309L54.7008 12.4754L45.3493 15.8752Z" fill="#006CFF"/>
</svg>
